{
	"asset":{
		"version":"2.0",
		"generator":"MAXON CINEMA 4D 11.514 (#200000219)"
	},
	"scenes":[{
		"nodes":[0,
		1,
		2]
	}],
	"nodes":[{
		"name":"camera",
		"camera":0,
		"translation":[-1.4958467483520508,
		0.21047605574131013,
		25.410640716552736],
		"rotation":[0.008726535364985466,
		0.0,
		0.0,
		-0.9999619126319885],
		"scale":[1.0,
		1.0,
		1.0]
	},
	{
		"name":"lights",
		"translation":[-0.08074622601270676,
		0.06277376413345337,
		0.1592203676700592],
		"rotation":[-0.1770058125257492,
		-0.2090330421924591,
		-0.061810191720724109,
		0.9597674608230591],
		"scale":[1.0,
		1.0,
		1.0],
		"children":[3,
		4]
	},
	{
		"name":"AOVA1G.svg",
		"translation":[-1.7088556289672852,
		-0.12834827601909638,
		0.0],
		"rotation":[0.08500037342309952,
		0.036378711462020877,
		0.0029086547438055279,
		-0.9957123398780823],
		"scale":[1.0,
		1.0,
		1.0],
		"children":[5]
	},
	{
		"name":"Back",
		"translation":[0.0,
		6.990443229675293,
		-4.699517250061035],
		"rotation":[-0.002400164259597659,
		-0.9613885283470154,
		-0.2750563621520996,
		0.008389422670006752],
		"scale":[1.0,
		1.0,
		1.0],
		"children":[6]
	},
	{
		"name":"Front",
		"translation":[0.0,
		4.790442943572998,
		4.910482883453369],
		"rotation":[0.27506688237190249,
		0.0,
		0.0,
		-0.9614251255989075],
		"scale":[1.0,
		1.0,
		1.0],
		"children":[7]
	},
	{
		"name":"Null",
		"translation":[0.0,
		0.0,
		0.0],
		"rotation":[0.0,
		0.0,
		0.0,
		-1.0],
		"scale":[28.914396286010743,
		28.914396286010743,
		28.914396286010743],
		"children":[8]
	},
	{
		"name":"Plane",
		"mesh":0,
		"translation":[0.0,
		0.0,
		0.0],
		"rotation":[-0.7071067690849304,
		0.0,
		0.0,
		-0.7071067690849304],
		"scale":[1.0,
		1.0,
		1.0]
	},
	{
		"name":"Plane",
		"mesh":1,
		"translation":[0.0,
		0.0,
		0.0],
		"rotation":[-0.7071067690849304,
		0.0,
		0.0,
		-0.7071067690849304],
		"scale":[1.0,
		1.0,
		1.0]
	},
	{
		"name":"Null",
		"translation":[-0.03021012432873249,
		-0.03021012432873249,
		0.0],
		"rotation":[0.0,
		0.0,
		0.0,
		-1.0],
		"scale":[1.0,
		1.0,
		1.0],
		"children":[9]
	},
	{
		"name":"Fill",
		"mesh":2
	}],
	"meshes":[{
		"name":"Plane",
		"primitives":[{
			"attributes":{
				"POSITION":1,
				"NORMAL":2,
				"TEXCOORD_0":3
			},
			"indices":0,
			"material":0
		}]
	},
	{
		"name":"Plane",
		"primitives":[{
			"attributes":{
				"POSITION":5,
				"NORMAL":6,
				"TEXCOORD_0":7
			},
			"indices":4,
			"material":1
		}]
	},
	{
		"name":"Fill",
		"primitives":[{
			"attributes":{
				"POSITION":9,
				"NORMAL":10,
				"TEXCOORD_0":11
			},
			"indices":8,
			"material":2
		}]
	}],
	"cameras":[{
		"type":"perspective",
		"perspective":{
			"znear":0.009999999776482582,
			"zfar":10000000000.0,
			"aspectRatio":3.0,
			"yfov":0.12007787078619003
		}
	}],
	"accessors":[{
		"bufferView":0,
		"type":"SCALAR",
		"componentType":5123,
		"count":9600,
		"byteOffset":0,
		"min":[0],
		"max":[9599]
	},
	{
		"bufferView":1,
		"type":"VEC3",
		"componentType":5126,
		"count":9600,
		"byteOffset":0,
		"min":[-3.5,
		0.0,
		-3.5],
		"max":[3.5,
		0.0,
		3.5]
	},
	{
		"bufferView":1,
		"type":"VEC3",
		"componentType":5126,
		"count":9600,
		"byteOffset":12,
		"min":[0.0,
		1.0,
		0.0],
		"max":[0.0,
		1.0,
		0.0]
	},
	{
		"bufferView":1,
		"type":"VEC2",
		"componentType":5126,
		"count":9600,
		"byteOffset":24,
		"min":[2.3715933661350165e-9,
		0.0],
		"max":[1.0,
		0.5]
	},
	{
		"bufferView":2,
		"type":"SCALAR",
		"componentType":5123,
		"count":9600,
		"byteOffset":0,
		"min":[0],
		"max":[9599]
	},
	{
		"bufferView":3,
		"type":"VEC3",
		"componentType":5126,
		"count":9600,
		"byteOffset":0,
		"min":[-3.5,
		0.0,
		-3.5],
		"max":[3.5,
		0.0,
		3.5]
	},
	{
		"bufferView":3,
		"type":"VEC3",
		"componentType":5126,
		"count":9600,
		"byteOffset":12,
		"min":[0.0,
		1.0,
		0.0],
		"max":[0.0,
		1.0,
		0.0]
	},
	{
		"bufferView":3,
		"type":"VEC2",
		"componentType":5126,
		"count":9600,
		"byteOffset":24,
		"min":[2.3715933661350165e-9,
		0.0],
		"max":[1.0,
		0.5]
	},
	{
		"bufferView":4,
		"type":"SCALAR",
		"componentType":5123,
		"count":516,
		"byteOffset":0,
		"min":[0],
		"max":[515]
	},
	{
		"bufferView":5,
		"type":"VEC3",
		"componentType":5126,
		"count":516,
		"byteOffset":0,
		"min":[0.0,
		8.881783998477906e-18,
		-0.05999999865889549],
		"max":[0.06042024865746498,
		0.06042024865746498,
		0.0]
	},
	{
		"bufferView":5,
		"type":"VEC3",
		"componentType":5126,
		"count":516,
		"byteOffset":12,
		"min":[-1.0,
		-1.0,
		-1.0],
		"max":[1.0,
		1.0,
		1.0]
	},
	{
		"bufferView":5,
		"type":"VEC2",
		"componentType":5126,
		"count":516,
		"byteOffset":24,
		"min":[0.0,
		0.0],
		"max":[1.0,
		1.0]
	}],
	"bufferViews":[{
		"buffer":0,
		"byteOffset":0,
		"byteLength":19200,
		"target":34963
	},
	{
		"buffer":0,
		"byteOffset":19200,
		"byteLength":307200,
		"target":34962,
		"byteStride":32
	},
	{
		"buffer":1,
		"byteOffset":0,
		"byteLength":19200,
		"target":34963
	},
	{
		"buffer":1,
		"byteOffset":19200,
		"byteLength":307200,
		"target":34962,
		"byteStride":32
	},
	{
		"buffer":2,
		"byteOffset":0,
		"byteLength":1032,
		"target":34963
	},
	{
		"buffer":2,
		"byteOffset":1032,
		"byteLength":16512,
		"target":34962,
		"byteStride":32
	}],
	"buffers":[{
		"uri":"data:application/octet-stream;base64,",
		"byteLength":326400
	},
	{
		"uri":"data:application/octet-stream;base64,",
		"byteLength":326400
	},
	{
		"uri":"data:application/octet-stream;base64,",
		"byteLength":17544
	}],
	"materials":[{
		"pbrMetallicRoughness":{
			"baseColorFactor":[1.0,
			1.0,
			1.0,
			1.0],
			"metallicFactor":1.0,
			"roughnessFactor":1.0
		},
		"emissiveFactor":[0.0,
		0.0,
		0.0],
		"alphaMode":"OPAQUE",
		"doubleSided":false,
		"name":""
	},
	{
		"pbrMetallicRoughness":{
			"baseColorFactor":[1.0,
			1.0,
			1.0,
			1.0],
			"metallicFactor":1.0,
			"roughnessFactor":1.0
		},
		"emissiveFactor":[0.0,
		0.0,
		0.0],
		"alphaMode":"OPAQUE",
		"doubleSided":false,
		"name":""
	},
	{
		"pbrMetallicRoughness":{
			"baseColorFactor":[0.6612244996489312,
			0.6612244996489312,
			0.6612244996489312,
			1.0],
			"metallicFactor":0.0,
			"roughnessFactor":0.7199999916553495
		},
		"emissiveFactor":[0.0,
		0.0,
		0.0],
		"alphaMode":"OPAQUE",
		"doubleSided":false,
		"name":"Grunge4"
	}]
}